<svg version="1.1" xmlns="http://www.w3.org/2000/svg" xmlns:xlink="http://www.w3.org/1999/xlink" preserveAspectRatio="xMidYMid meet" viewBox="-1 70.10966222222221 644 501.78067555555566" width="640" height="497.78"><defs><path d="M393.95 71.22L395.3 71.36L396.66 71.55L398 71.79L399.33 72.08L400.66 72.42L401.97 72.81L403.26 73.25L404.54 73.74L405.8 74.28L407.05 74.87L408.27 75.52L409.47 76.21L410.64 76.94L411.79 77.73L412.91 78.57L414.01 79.45L415.07 80.38L416.1 81.36L417.09 82.39L418.06 83.47L418.98 84.59L419.87 85.75L538.51 248.89L613.33 248.89L614.43 248.91L615.52 248.98L616.6 249.09L617.66 249.24L618.71 249.43L619.74 249.67L620.76 249.94L621.76 250.25L622.75 250.6L623.71 250.99L624.66 251.41L625.59 251.87L626.5 252.36L627.38 252.89L628.24 253.44L629.08 254.04L629.9 254.66L630.69 255.31L631.45 255.99L632.19 256.7L632.9 257.44L633.58 258.2L634.23 258.99L634.85 259.81L635.45 260.65L636 261.51L636.53 262.4L637.02 263.3L637.48 264.23L637.9 265.18L638.29 266.14L638.64 267.13L638.95 268.13L639.23 269.15L639.46 270.18L639.65 271.23L639.8 272.29L639.91 273.37L639.98 274.46L640 275.56L640 293.33L639.98 294.43L639.91 295.52L639.8 296.6L639.65 297.66L639.46 298.71L639.23 299.74L638.95 300.76L638.64 301.76L638.29 302.75L637.9 303.71L637.48 304.66L637.02 305.59L636.53 306.5L636 307.38L635.45 308.24L634.85 309.08L634.23 309.9L633.58 310.69L632.9 311.45L632.19 312.19L631.45 312.9L630.69 313.58L629.9 314.23L629.08 314.86L628.24 315.45L627.38 316.01L626.5 316.53L625.59 317.02L624.66 317.48L623.71 317.91L622.75 318.29L621.76 318.64L620.76 318.95L619.74 319.23L618.71 319.46L617.66 319.65L616.6 319.8L615.52 319.91L614.43 319.98L613.33 320L604.44 320L575.43 523.1L575.11 525.06L574.73 526.99L574.28 528.89L573.76 530.77L573.17 532.61L572.53 534.42L571.82 536.2L571.05 537.95L570.22 539.66L569.33 541.34L568.39 542.98L567.39 544.58L566.33 546.14L565.23 547.66L564.07 549.13L562.87 550.57L561.61 551.96L560.31 553.3L558.97 554.6L557.58 555.85L556.14 557.05L554.67 558.2L553.16 559.29L551.6 560.34L550.01 561.33L548.39 562.27L546.73 563.14L545.03 563.97L543.31 564.73L541.55 565.43L539.77 566.07L537.96 566.65L536.12 567.17L534.25 567.62L532.37 568L530.46 568.32L528.53 568.57L526.58 568.75L524.62 568.85L522.63 568.89L117.37 568.89L115.38 568.85L113.42 568.75L111.47 568.57L109.54 568.32L107.63 568L105.75 567.62L103.88 567.17L102.04 566.65L100.23 566.07L98.45 565.43L96.69 564.73L94.97 563.97L93.27 563.14L91.61 562.27L89.99 561.33L88.4 560.34L86.84 559.29L85.33 558.2L83.86 557.05L82.42 555.85L81.03 554.6L79.69 553.3L78.39 551.96L77.13 550.57L75.93 549.13L74.77 547.66L73.67 546.14L72.61 544.58L71.61 542.98L70.67 541.34L69.78 539.66L68.95 537.95L68.18 536.2L67.47 534.42L66.83 532.61L66.24 530.77L65.72 528.89L65.27 526.99L64.89 525.06L64.57 523.1L35.56 320L26.67 320L25.57 319.98L24.48 319.91L23.4 319.8L22.34 319.65L21.29 319.46L20.26 319.23L19.24 318.95L18.24 318.64L17.25 318.29L16.29 317.91L15.34 317.48L14.41 317.02L13.5 316.53L12.62 316.01L11.76 315.45L10.92 314.86L10.1 314.23L9.31 313.58L8.55 312.9L7.81 312.19L7.1 311.45L6.42 310.69L5.77 309.9L5.15 309.08L4.55 308.24L4 307.38L3.47 306.5L2.98 305.59L2.52 304.66L2.1 303.71L1.71 302.75L1.36 301.76L1.05 300.76L0.77 299.74L0.54 298.71L0.35 297.66L0.2 296.6L0.09 295.52L0.02 294.43L0 293.33L0 275.56L0.02 274.46L0.09 273.37L0.2 272.29L0.35 271.23L0.54 270.18L0.77 269.15L1.05 268.13L1.36 267.13L1.71 266.14L2.1 265.18L2.52 264.23L2.98 263.3L3.47 262.4L4 261.51L4.55 260.65L5.15 259.81L5.77 258.99L6.42 258.2L7.1 257.44L7.81 256.7L8.55 255.99L9.31 255.31L10.1 254.66L10.92 254.04L11.76 253.44L12.62 252.89L13.5 252.36L14.41 251.87L15.34 251.41L16.29 250.99L17.25 250.6L18.24 250.25L19.24 249.94L20.26 249.67L21.29 249.43L22.34 249.24L23.4 249.09L24.48 248.98L25.57 248.91L26.67 248.89L101.49 248.89L220.13 85.76L221.02 84.59L221.94 83.47L222.91 82.39L223.9 81.37L224.93 80.39L226 79.45L227.09 78.57L228.21 77.73L229.36 76.95L230.53 76.21L231.73 75.52L232.95 74.88L234.2 74.28L235.46 73.74L236.74 73.25L238.03 72.81L239.34 72.42L240.67 72.08L242 71.79L243.34 71.55L244.7 71.36L246.05 71.23L247.42 71.14L248.78 71.11L250.15 71.13L251.52 71.21L252.89 71.33L254.25 71.51L255.61 71.75L256.97 72.03L258.31 72.37L259.65 72.77L260.97 73.22L262.28 73.72L263.58 74.28L264.86 74.9L266.13 75.57L267.37 76.29L268.6 77.08L269.8 77.91L270.97 78.8L272.09 79.72L273.17 80.69L274.19 81.68L275.17 82.71L276.1 83.78L276.99 84.87L277.82 85.99L278.61 87.14L279.35 88.31L280.04 89.51L280.68 90.73L281.27 91.98L281.82 93.24L282.31 94.52L282.75 95.81L283.14 97.12L283.48 98.45L283.77 99.78L284.01 101.12L284.2 102.48L284.33 103.83L284.42 105.2L284.45 106.56L284.43 107.93L284.35 109.3L284.23 110.67L284.05 112.03L283.81 113.39L283.53 114.75L283.18 116.09L282.79 117.43L282.34 118.75L281.83 120.06L281.27 121.36L280.66 122.64L279.99 123.91L279.26 125.15L278.48 126.38L277.64 127.58L189.42 248.89L450.58 248.89L362.36 127.58L361.52 126.38L360.74 125.15L360.01 123.91L359.34 122.64L358.73 121.36L358.17 120.06L357.66 118.75L357.21 117.43L356.82 116.09L356.48 114.74L356.19 113.39L355.95 112.03L355.77 110.67L355.65 109.3L355.57 107.93L355.55 106.56L355.58 105.2L355.67 103.83L355.8 102.47L355.99 101.12L356.23 99.78L356.52 98.44L356.86 97.12L357.25 95.81L357.69 94.52L358.18 93.24L358.73 91.98L359.32 90.73L359.96 89.51L360.65 88.31L361.39 87.14L362.18 85.99L363.01 84.87L363.9 83.77L364.83 82.71L365.81 81.68L366.84 80.68L367.91 79.72L369.03 78.8L370.2 77.91L371.4 77.07L372.63 76.29L373.87 75.57L375.14 74.9L376.42 74.28L377.72 73.72L379.03 73.22L380.35 72.77L381.69 72.37L383.03 72.03L384.39 71.74L385.75 71.51L387.11 71.33L388.48 71.2L389.85 71.13L391.22 71.11L392.58 71.14L393.95 71.22ZM317.81 320.09L316.74 320.2L315.67 320.35L314.63 320.54L313.59 320.78L312.57 321.05L311.57 321.36L310.59 321.71L309.62 322.1L308.67 322.52L307.75 322.98L306.84 323.47L305.95 324L305.09 324.56L304.25 325.15L303.44 325.77L302.65 326.42L301.88 327.1L301.14 327.81L300.43 328.55L299.75 329.31L299.1 330.1L298.48 330.92L297.89 331.76L297.33 332.62L296.8 333.51L296.31 334.41L295.85 335.34L295.43 336.29L295.04 337.25L294.69 338.24L294.38 339.24L294.11 340.26L293.88 341.29L293.68 342.34L293.53 343.41L293.42 344.48L293.36 345.57L293.33 346.67L293.33 471.11L293.36 472.21L293.42 473.3L293.53 474.38L293.68 475.44L293.88 476.49L294.11 477.52L294.38 478.54L294.69 479.54L295.04 480.53L295.43 481.49L295.85 482.44L296.31 483.37L296.8 484.27L297.33 485.16L297.89 486.02L298.48 486.86L299.1 487.68L299.75 488.47L300.43 489.23L301.14 489.97L301.88 490.68L302.65 491.36L303.44 492.01L304.25 492.63L305.09 493.23L305.95 493.78L306.84 494.31L307.75 494.8L308.67 495.26L309.62 495.68L310.59 496.07L311.57 496.42L312.57 496.73L313.59 497L314.63 497.24L315.67 497.43L316.74 497.58L317.81 497.69L318.9 497.76L320 497.78L321.1 497.76L322.19 497.69L323.26 497.58L324.33 497.43L325.37 497.24L326.41 497L327.43 496.73L328.43 496.42L329.41 496.07L330.38 495.68L331.33 495.26L332.25 494.8L333.16 494.31L334.05 493.78L334.91 493.23L335.75 492.63L336.56 492.01L337.35 491.36L338.12 490.68L338.86 489.97L339.57 489.23L340.25 488.47L340.9 487.68L341.52 486.86L342.11 486.02L342.67 485.16L343.2 484.27L343.69 483.37L344.15 482.44L344.57 481.49L344.96 480.53L345.31 479.54L345.62 478.54L345.89 477.52L346.12 476.49L346.32 475.44L346.47 474.38L346.58 473.3L346.64 472.21L346.67 471.11L346.67 346.67L346.64 345.57L346.58 344.48L346.47 343.41L346.32 342.34L346.12 341.29L345.89 340.26L345.62 339.24L345.31 338.24L344.96 337.25L344.57 336.29L344.15 335.34L343.69 334.41L343.2 333.51L342.67 332.62L342.11 331.76L341.52 330.92L340.9 330.1L340.25 329.31L339.57 328.55L338.86 327.81L338.12 327.1L337.35 326.42L336.56 325.77L335.75 325.15L334.91 324.56L334.05 324L333.16 323.47L332.25 322.98L331.33 322.52L330.38 322.1L329.41 321.71L328.43 321.36L327.43 321.05L326.41 320.78L325.37 320.54L324.33 320.35L323.26 320.2L322.19 320.09L321.1 320.02L320 320L318.9 320.02L317.81 320.09ZM442.26 320.09L441.18 320.2L440.12 320.35L439.07 320.54L438.04 320.78L437.02 321.05L436.02 321.36L435.03 321.71L434.06 322.1L433.12 322.52L432.19 322.98L431.28 323.47L430.4 324L429.53 324.56L428.7 325.15L427.88 325.77L427.09 326.42L426.33 327.1L425.59 327.81L424.88 328.55L424.2 329.31L423.54 330.1L422.92 330.92L422.33 331.76L421.77 332.62L421.25 333.51L420.75 334.41L420.3 335.34L419.87 336.29L419.49 337.25L419.14 338.24L418.83 339.24L418.55 340.26L418.32 341.29L418.13 342.34L417.98 343.41L417.87 344.48L417.8 345.57L417.78 346.67L417.78 471.11L417.8 472.21L417.87 473.3L417.98 474.38L418.13 475.44L418.32 476.49L418.55 477.52L418.83 478.54L419.14 479.54L419.49 480.53L419.87 481.49L420.3 482.44L420.75 483.37L421.25 484.27L421.77 485.16L422.33 486.02L422.92 486.86L423.54 487.68L424.2 488.47L424.88 489.23L425.59 489.97L426.33 490.68L427.09 491.36L427.88 492.01L428.7 492.63L429.53 493.23L430.4 493.78L431.28 494.31L432.19 494.8L433.12 495.26L434.06 495.68L435.03 496.07L436.02 496.42L437.02 496.73L438.04 497L439.07 497.24L440.12 497.43L441.18 497.58L442.26 497.69L443.35 497.76L444.44 497.78L445.54 497.76L446.63 497.69L447.71 497.58L448.77 497.43L449.82 497.24L450.85 497L451.87 496.73L452.87 496.42L453.86 496.07L454.82 495.68L455.77 495.26L456.7 494.8L457.61 494.31L458.49 493.78L459.35 493.23L460.19 492.63L461.01 492.01L461.8 491.36L462.56 490.68L463.3 489.97L464.01 489.23L464.69 488.47L465.34 487.68L465.97 486.86L466.56 486.02L467.12 485.16L467.64 484.27L468.13 483.37L468.59 482.44L469.02 481.49L469.4 480.53L469.75 479.54L470.06 478.54L470.34 477.52L470.57 476.49L470.76 475.44L470.91 474.38L471.02 473.3L471.09 472.21L471.11 471.11L471.11 346.67L471.09 345.57L471.02 344.48L470.91 343.41L470.76 342.34L470.57 341.29L470.34 340.26L470.06 339.24L469.75 338.24L469.4 337.25L469.02 336.29L468.59 335.34L468.13 334.41L467.64 333.51L467.12 332.62L466.56 331.76L465.97 330.92L465.34 330.1L464.69 329.31L464.01 328.55L463.3 327.81L462.56 327.1L461.8 326.42L461.01 325.77L460.19 325.15L459.35 324.56L458.49 324L457.61 323.47L456.7 322.98L455.77 322.52L454.82 322.1L453.86 321.71L452.87 321.36L451.87 321.05L450.85 320.78L449.82 320.54L448.77 320.35L447.71 320.2L446.63 320.09L445.54 320.02L444.44 320L443.35 320.02L442.26 320.09ZM193.37 320.09L192.29 320.2L191.23 320.35L190.18 320.54L189.15 320.78L188.13 321.05L187.13 321.36L186.14 321.71L185.18 322.1L184.23 322.52L183.3 322.98L182.39 323.47L181.51 324L180.65 324.56L179.81 325.15L178.99 325.77L178.2 326.42L177.44 327.1L176.7 327.81L175.99 328.55L175.31 329.31L174.66 330.1L174.03 330.92L173.44 331.76L172.88 332.62L172.36 333.51L171.87 334.41L171.41 335.34L170.98 336.29L170.6 337.25L170.25 338.24L169.94 339.24L169.66 340.26L169.43 341.29L169.24 342.34L169.09 343.41L168.98 344.48L168.91 345.57L168.89 346.67L168.89 471.11L168.91 472.21L168.98 473.3L169.09 474.38L169.24 475.44L169.43 476.49L169.66 477.52L169.94 478.54L170.25 479.54L170.6 480.53L170.98 481.49L171.41 482.44L171.87 483.37L172.36 484.27L172.88 485.16L173.44 486.02L174.03 486.86L174.66 487.68L175.31 488.47L175.99 489.23L176.7 489.97L177.44 490.68L178.2 491.36L178.99 492.01L179.81 492.63L180.65 493.23L181.51 493.78L182.39 494.31L183.3 494.8L184.23 495.26L185.18 495.68L186.14 496.07L187.13 496.42L188.13 496.73L189.15 497L190.18 497.24L191.23 497.43L192.29 497.58L193.37 497.69L194.46 497.76L195.56 497.78L196.65 497.76L197.74 497.69L198.82 497.58L199.88 497.43L200.93 497.24L201.96 497L202.98 496.73L203.98 496.42L204.97 496.07L205.94 495.68L206.88 495.26L207.81 494.8L208.72 494.31L209.6 493.78L210.47 493.23L211.3 492.63L212.12 492.01L212.91 491.36L213.67 490.68L214.41 489.97L215.12 489.23L215.8 488.47L216.46 487.68L217.08 486.86L217.67 486.02L218.23 485.16L218.75 484.27L219.25 483.37L219.7 482.44L220.13 481.49L220.51 480.53L220.86 479.54L221.17 478.54L221.45 477.52L221.68 476.49L221.87 475.44L222.02 474.38L222.13 473.3L222.2 472.21L222.22 471.11L222.22 346.67L222.2 345.57L222.13 344.48L222.02 343.41L221.87 342.34L221.68 341.29L221.45 340.26L221.17 339.24L220.86 338.24L220.51 337.25L220.13 336.29L219.7 335.34L219.25 334.41L218.75 333.51L218.23 332.62L217.67 331.76L217.08 330.92L216.46 330.1L215.8 329.31L215.12 328.55L214.41 327.81L213.67 327.1L212.91 326.42L212.12 325.77L211.3 325.15L210.47 324.56L209.6 324L208.72 323.47L207.81 322.98L206.88 322.52L205.94 322.1L204.97 321.71L203.98 321.36L202.98 321.05L201.96 320.78L200.93 320.54L199.88 320.35L198.82 320.2L197.74 320.09L196.65 320.02L195.56 320L194.46 320.02L193.37 320.09Z" id="e3YjjM7Hq0"></path></defs><g><g><use xlink:href="#e3YjjM7Hq0" opacity="1" fill="#ffffff" fill-opacity="1"></use><g><use xlink:href="#e3YjjM7Hq0" opacity="1" fill-opacity="0" stroke="#000000" stroke-width="1" stroke-opacity="0"></use></g></g></g></svg>